<?xml version="1.0" encoding="utf-8"?>
<!-- Generator: Adobe Illustrator 24.3.0, SVG Export Plug-In . SVG Version: 6.00 Build 0)  -->
<svg version="1.1" id="Layer_1" xmlns="http://www.w3.org/2000/svg" xmlns:xlink="http://www.w3.org/1999/xlink" x="0px" y="0px"
	 viewBox="0 0 300 104" style="enable-background:new 0 0 300 104;" xml:space="preserve">
<style type="text/css">
	.st0{clip-path:url(#SVGID_2_);fill:#1A2542;}
	.st1{clip-path:url(#SVGID_2_);}
	.st2{opacity:0.5;clip-path:url(#SVGID_4_);}
	.st3{clip-path:url(#SVGID_6_);}
	.st4{clip-path:url(#SVGID_4_);fill:#FFFFFF;}
	.st5{clip-path:url(#SVGID_4_);fill:#1A2542;}
	.st6{clip-path:url(#SVGID_4_);fill:none;stroke:#1A2542;stroke-width:0.836;stroke-miterlimit:10;}
</style>
<g>
	<defs>
		<rect id="SVGID_1_" width="300" height="104"/>
	</defs>
	<clipPath id="SVGID_2_">
		<use xlink:href="#SVGID_1_"  style="overflow:visible;"/>
	</clipPath>
	<rect x="72.72" y="50.1" class="st0" width="221.63" height="48.19"/>
	<g class="st1">
		<defs>
			<rect id="SVGID_3_" width="300" height="104"/>
		</defs>
		<clipPath id="SVGID_4_">
			<use xlink:href="#SVGID_3_"  style="overflow:visible;"/>
		</clipPath>
		<g class="st2">
			<g>
				<defs>
					<rect id="SVGID_5_" x="82.55" y="61.06" width="206.88" height="31.2"/>
				</defs>
				<clipPath id="SVGID_6_">
					<use xlink:href="#SVGID_5_"  style="overflow:visible;"/>
				</clipPath>
				<g class="st3">
					<defs>
						<rect id="SVGID_7_" x="82.55" y="61.06" width="206.88" height="31.2"/>
					</defs>
					<clipPath id="SVGID_8_">
						<use xlink:href="#SVGID_7_"  style="overflow:visible;"/>
					</clipPath>
					<g style="clip-path:url(#SVGID_8_);">
						
							<image style="overflow:visible;" width="862" height="130" xlink:href="92E62C25D7B9DBE1.png"  transform="matrix(0.24 0 0 0.24 82.547 61.057)">
						</image>
					</g>
				</g>
			</g>
		</g>
		<path class="st4" d="M82.55,62.77c2.04-0.36,4.69-0.55,7.46-0.55c4.69,0,7.75,0.87,10.08,2.62c2.55,1.89,4.15,4.88,4.15,9.24
			c0,4.69-1.71,7.93-4.04,9.94c-2.58,2.15-6.55,3.17-11.36,3.17c-2.88,0-4.95-0.18-6.3-0.36V62.77z M88.08,82.75
			c0.47,0.11,1.27,0.11,1.93,0.11c5.06,0.04,8.37-2.73,8.37-8.59c0-5.09-2.98-7.79-7.79-7.79c-1.2,0-2.04,0.11-2.51,0.22V82.75z"/>
		<path class="st4" d="M111.96,79.8c0.18,2.29,2.44,3.39,5.02,3.39c1.89,0,3.42-0.25,4.91-0.76l0.73,3.75
			c-1.82,0.76-4.04,1.13-6.44,1.13c-6.04,0-9.5-3.49-9.5-9.06c0-4.51,2.84-9.5,8.99-9.5c5.75,0,7.93,4.48,7.93,8.88
			c0,0.95-0.11,1.78-0.18,2.18H111.96z M118.47,76.02c0-1.35-0.58-3.6-3.09-3.6c-2.37,0-3.31,2.15-3.46,3.6H118.47z"/>
		<path class="st4" d="M126.92,61.06h5.53v10.19h0.07c1.05-1.53,2.91-2.51,5.39-2.51c4.26,0,7.35,3.53,7.32,8.99
			c0,6.4-4.04,9.61-8.12,9.61c-2.07,0-4.11-0.76-5.35-2.88h-0.07l-0.22,2.47h-4.69c0.07-1.16,0.15-3.31,0.15-5.31V61.06z
			 M132.45,79.36c0,0.36,0.04,0.69,0.11,0.98c0.36,1.46,1.64,2.62,3.24,2.62c2.37,0,3.82-1.82,3.82-5.02c0-2.77-1.24-4.95-3.82-4.95
			c-1.49,0-2.88,1.13-3.24,2.73c-0.07,0.33-0.11,0.65-0.11,1.02V79.36z"/>
		<path class="st4" d="M154.87,64.3v4.84h3.97v4.08h-3.97v6.44c0,2.15,0.55,3.13,2.18,3.13c0.76,0,1.13-0.04,1.64-0.15l0.04,4.18
			c-0.69,0.26-2.04,0.47-3.57,0.47c-1.78,0-3.27-0.62-4.18-1.53c-1.02-1.06-1.53-2.77-1.53-5.28v-7.28h-2.37v-4.08h2.37v-3.35
			L154.87,64.3z"/>
		<path class="st4" d="M169.76,81.22c1.46,0.76,3.78,1.53,6.15,1.53c2.55,0,3.89-1.06,3.89-2.66c0-1.53-1.17-2.4-4.11-3.42
			c-4.08-1.46-6.77-3.71-6.77-7.28c0-4.18,3.53-7.35,9.28-7.35c2.8,0,4.8,0.55,6.26,1.24l-1.24,4.44c-0.95-0.47-2.73-1.16-5.1-1.16
			c-2.4,0-3.57,1.13-3.57,2.36c0,1.57,1.35,2.26,4.55,3.46c4.33,1.6,6.33,3.86,6.33,7.32c0,4.11-3.13,7.61-9.86,7.61
			c-2.8,0-5.57-0.76-6.95-1.53L169.76,81.22z"/>
		<path class="st4" d="M197.49,87.33c-5.2,0-9.21-3.42-9.21-9.17c0-5.75,3.79-9.43,9.54-9.43c5.42,0,9.06,3.75,9.06,9.14
			c0,6.48-4.62,9.46-9.35,9.46H197.49z M197.64,83.37c2.18,0,3.53-2.15,3.53-5.35c0-2.62-1.02-5.31-3.53-5.31
			c-2.62,0-3.64,2.69-3.64,5.35c0,3.02,1.27,5.31,3.6,5.31H197.64z"/>
		<rect x="210.31" y="61.06" class="st4" width="5.53" height="25.88"/>
		<path class="st4" d="M224.43,69.14l2.4,8.26c0.44,1.49,0.73,2.91,1.02,4.33h0.11c0.29-1.46,0.58-2.8,0.98-4.33l2.29-8.26h5.82
			l-6.62,17.8h-5.53l-6.48-17.8H224.43z"/>
		<path class="st4" d="M243.32,79.8c0.18,2.29,2.44,3.39,5.02,3.39c1.89,0,3.42-0.25,4.91-0.76l0.73,3.75
			c-1.82,0.76-4.04,1.13-6.44,1.13c-6.04,0-9.5-3.49-9.5-9.06c0-4.51,2.84-9.5,8.99-9.5c5.75,0,7.93,4.48,7.93,8.88
			c0,0.95-0.11,1.78-0.18,2.18H243.32z M249.84,76.02c0-1.35-0.58-3.6-3.09-3.6c-2.37,0-3.31,2.15-3.46,3.6H249.84z"/>
		<path class="st4" d="M258.28,75c0-2.62-0.04-4.33-0.15-5.86h4.73l0.22,3.31h0.15c0.91-2.62,3.06-3.71,4.8-3.71
			c0.51,0,0.76,0.04,1.16,0.11v5.21c-0.44-0.07-0.87-0.15-1.49-0.15c-2.04,0-3.42,1.06-3.79,2.8c-0.07,0.36-0.11,0.76-0.11,1.24
			v8.99h-5.53V75z"/>
		<path class="st4" d="M272.08,82.09c1.02,0.62,3.13,1.31,4.77,1.31c1.67,0,2.37-0.55,2.37-1.46c0-0.91-0.55-1.38-2.58-2.04
			c-3.71-1.24-5.13-3.24-5.1-5.31c0-3.35,2.84-5.86,7.24-5.86c2.07,0,3.89,0.51,4.99,1.06l-0.95,3.78c-0.8-0.4-2.37-0.98-3.86-0.98
			c-1.35,0-2.11,0.55-2.11,1.42c0,0.84,0.69,1.31,2.88,2.04c3.39,1.17,4.77,2.88,4.81,5.46c0,3.35-2.59,5.79-7.68,5.79
			c-2.33,0-4.4-0.55-5.75-1.27L272.08,82.09z"/>
		<path class="st5" d="M4.47,41.54c1.64-0.79,3.35-1.46,5.13-2c1.78-0.54,3.56-1.02,5.34-1.44l1.75-2.74
			c1.55-2.2,3.11-4.33,4.7-6.39c1.59-2.06,3.25-4.12,4.99-6.18c1.69-1.97,3.43-3.9,5.23-5.79c1.8-1.9,3.71-3.66,5.72-5.3
			c0.98-0.8,1.99-1.54,3.02-2.25c1.03-0.7,2.08-1.33,3.16-1.9c0.28-0.14,0.74-0.35,1.37-0.63c0.63-0.28,1.28-0.5,1.93-0.67
			c0.66-0.16,1.26-0.22,1.83-0.18c0.56,0.05,0.94,0.33,1.12,0.84c0.09,0.33,0.06,0.67-0.1,1.02c-0.17,0.35-0.29,0.67-0.39,0.95
			l-1.61,3.3l-1.33,2.74c-0.94,1.83-1.84,3.65-2.7,5.48c-0.87,1.83-1.72,3.7-2.56,5.62c-0.75,1.69-1.47,3.37-2.18,5.06
			c-0.7,1.69-1.36,3.42-1.97,5.2c0.37,0,0.74,0.02,1.09,0.07c0.35,0.05,0.67,0.12,0.95,0.21c0.56,0.24,0.83,0.64,0.81,1.23
			c-0.03,0.59-0.32,0.97-0.88,1.16c-0.42,0.09-0.87,0.12-1.33,0.07c-0.47-0.05-0.96-0.12-1.47-0.21l-0.28,1.48
			c-0.28,0.98-0.55,2.03-0.81,3.12c-0.26,1.1-0.47,2.2-0.63,3.3c-0.16,1.1-0.27,2.19-0.32,3.26c-0.05,1.08,0.02,2.11,0.21,3.09
			c1.31-1.31,2.55-2.58,3.72-3.79c1.17-1.22,2.46-2.36,3.86-3.44c2.11-1.64,4.27-3.16,6.5-4.56c2.22-1.4,4.51-2.74,6.85-4
			c0.23-0.14,0.44-0.18,0.63-0.11c0.19,0.07,0.34,0.2,0.46,0.39c0.12,0.19,0.16,0.39,0.14,0.6c-0.02,0.21-0.15,0.39-0.39,0.53
			l-2.88,1.54c-1.22,0.7-2.42,1.42-3.62,2.14c-1.19,0.73-2.35,1.51-3.48,2.35c-3.61,2.62-6.86,5.71-9.76,9.27
			c-0.24,0.38-0.48,0.7-0.74,0.98c-0.26,0.28-0.64,0.47-1.16,0.56c-0.66,0.09-1.17,0-1.54-0.28c-0.38-0.28-0.67-0.66-0.88-1.12
			c-0.21-0.47-0.34-0.98-0.39-1.54c-0.05-0.56-0.05-1.08,0-1.55c0.05-2.06,0.35-4.14,0.91-6.25c0.56-2.11,1.17-4.14,1.83-6.11
			c-0.8-0.05-1.59-0.08-2.39-0.11c-0.8-0.02-1.59-0.04-2.39-0.04c-1.69-0.09-3.37-0.09-5.06,0c-1.68,0.09-3.35,0.26-4.99,0.49
			l-3.23,0.49l-0.98,1.83c-0.56,1.08-1.15,2.2-1.76,3.37c-0.61,1.17-0.98,2.36-1.12,3.58c-0.05,0.37-0.13,0.75-0.25,1.12
			c-0.12,0.37-0.43,0.58-0.95,0.63c-0.42,0-0.76-0.14-1.02-0.42C9.93,49.33,9.83,49,9.87,48.63c0.05-1.17,0.36-2.32,0.95-3.44
			c0.58-1.12,1.13-2.18,1.65-3.16c0.19-0.37,0.37-0.7,0.56-0.98c0.19-0.28,0.4-0.61,0.63-0.98c-0.66,0.14-1.28,0.29-1.86,0.46
			c-0.59,0.17-1.2,0.36-1.86,0.6c-0.84,0.24-1.65,0.52-2.42,0.84c-0.77,0.33-1.56,0.68-2.35,1.05c-0.24,0.14-0.46,0.17-0.67,0.07
			c-0.21-0.09-0.35-0.23-0.42-0.42c-0.07-0.19-0.08-0.39-0.03-0.6C4.09,41.85,4.23,41.68,4.47,41.54 M35.23,36.13
			c1.22-3.23,2.49-6.39,3.83-9.48c1.33-3.09,2.68-6.2,4.04-9.34c0.66-1.4,1.29-2.82,1.9-4.25c0.61-1.43,1.19-2.89,1.76-4.39
			c-1.08,0.19-2.15,0.55-3.23,1.09c-1.08,0.54-2.11,1.16-3.09,1.86c-0.98,0.7-1.91,1.43-2.77,2.18c-0.87,0.75-1.67,1.45-2.42,2.11
			c-3.93,3.61-7.58,7.58-10.96,11.94c-2.39,3.18-4.66,6.42-6.81,9.69l5.83-0.84c1.73-0.14,3.46-0.25,5.2-0.32
			c1.73-0.07,3.49-0.06,5.27,0.04h1.4C35.16,36.27,35.18,36.18,35.23,36.13"/>
		<path class="st6" d="M4.47,41.54c1.64-0.79,3.35-1.46,5.13-2c1.78-0.54,3.56-1.02,5.34-1.44l1.75-2.74
			c1.55-2.2,3.11-4.33,4.7-6.39c1.59-2.06,3.25-4.12,4.99-6.18c1.69-1.97,3.43-3.9,5.23-5.79c1.8-1.9,3.71-3.66,5.72-5.3
			c0.98-0.8,1.99-1.54,3.02-2.25c1.03-0.7,2.08-1.33,3.16-1.9c0.28-0.14,0.74-0.35,1.37-0.63c0.63-0.28,1.28-0.5,1.93-0.67
			c0.66-0.16,1.26-0.22,1.83-0.18c0.56,0.05,0.94,0.33,1.12,0.84c0.09,0.33,0.06,0.67-0.1,1.02c-0.17,0.35-0.29,0.67-0.39,0.95
			l-1.61,3.3l-1.33,2.74c-0.94,1.83-1.84,3.65-2.7,5.48c-0.87,1.83-1.72,3.7-2.56,5.62c-0.75,1.69-1.47,3.37-2.18,5.06
			c-0.7,1.69-1.36,3.42-1.97,5.2c0.37,0,0.74,0.02,1.09,0.07c0.35,0.05,0.67,0.12,0.95,0.21c0.56,0.24,0.83,0.64,0.81,1.23
			c-0.03,0.59-0.32,0.97-0.88,1.16c-0.42,0.09-0.87,0.12-1.33,0.07c-0.47-0.05-0.96-0.12-1.47-0.21l-0.28,1.48
			c-0.28,0.98-0.55,2.03-0.81,3.12c-0.26,1.1-0.47,2.2-0.63,3.3c-0.16,1.1-0.27,2.19-0.32,3.26c-0.05,1.08,0.02,2.11,0.21,3.09
			c1.31-1.31,2.55-2.58,3.72-3.79c1.17-1.22,2.46-2.36,3.86-3.44c2.11-1.64,4.27-3.16,6.5-4.56c2.22-1.4,4.51-2.74,6.85-4
			c0.23-0.14,0.44-0.18,0.63-0.11c0.19,0.07,0.34,0.2,0.46,0.39c0.12,0.19,0.16,0.39,0.14,0.6c-0.02,0.21-0.15,0.39-0.39,0.53
			l-2.88,1.54c-1.22,0.7-2.42,1.42-3.62,2.14c-1.19,0.73-2.35,1.51-3.48,2.35c-3.61,2.62-6.86,5.71-9.76,9.27
			c-0.24,0.38-0.48,0.7-0.74,0.98c-0.26,0.28-0.64,0.47-1.16,0.56c-0.66,0.09-1.17,0-1.54-0.28c-0.38-0.28-0.67-0.66-0.88-1.12
			c-0.21-0.47-0.34-0.98-0.39-1.54c-0.05-0.56-0.05-1.08,0-1.55c0.05-2.06,0.35-4.14,0.91-6.25c0.56-2.11,1.17-4.14,1.83-6.11
			c-0.8-0.05-1.59-0.08-2.39-0.11c-0.8-0.02-1.59-0.04-2.39-0.04c-1.69-0.09-3.37-0.09-5.06,0c-1.68,0.09-3.35,0.26-4.99,0.49
			l-3.23,0.49l-0.98,1.83c-0.56,1.08-1.15,2.2-1.76,3.37c-0.61,1.17-0.98,2.36-1.12,3.58c-0.05,0.37-0.13,0.75-0.25,1.12
			c-0.12,0.37-0.43,0.58-0.95,0.63c-0.42,0-0.76-0.14-1.02-0.42C9.93,49.33,9.83,49,9.87,48.63c0.05-1.17,0.36-2.32,0.95-3.44
			c0.58-1.12,1.13-2.18,1.65-3.16c0.19-0.37,0.37-0.7,0.56-0.98c0.19-0.28,0.4-0.61,0.63-0.98c-0.66,0.14-1.28,0.29-1.86,0.46
			c-0.59,0.17-1.2,0.36-1.86,0.6c-0.84,0.24-1.65,0.52-2.42,0.84c-0.77,0.33-1.56,0.68-2.35,1.05c-0.24,0.14-0.46,0.17-0.67,0.07
			c-0.21-0.09-0.35-0.23-0.42-0.42c-0.07-0.19-0.08-0.39-0.03-0.6C4.09,41.85,4.23,41.68,4.47,41.54z M35.23,36.13
			c1.22-3.23,2.49-6.39,3.83-9.48c1.33-3.09,2.68-6.2,4.04-9.34c0.66-1.4,1.29-2.82,1.9-4.25c0.61-1.43,1.19-2.89,1.76-4.39
			c-1.08,0.19-2.15,0.55-3.23,1.09c-1.08,0.54-2.11,1.16-3.09,1.86c-0.98,0.7-1.91,1.43-2.77,2.18c-0.87,0.75-1.67,1.45-2.42,2.11
			c-3.93,3.61-7.58,7.58-10.96,11.94c-2.39,3.18-4.66,6.42-6.81,9.69l5.83-0.84c1.73-0.14,3.46-0.25,5.2-0.32
			c1.73-0.07,3.49-0.06,5.27,0.04h1.4C35.16,36.27,35.18,36.18,35.23,36.13z"/>
		<path class="st5" d="M55.17,37.25c1.22-0.37,2.41-0.83,3.58-1.37c1.17-0.54,2.34-1.06,3.51-1.58c0.28-0.14,0.71-0.41,1.3-0.81
			c0.58-0.4,1.18-0.76,1.79-1.09c0.61-0.33,1.18-0.55,1.72-0.67c0.54-0.12,0.95,0.03,1.23,0.46c0.23,0.38,0.27,0.74,0.11,1.09
			c-0.17,0.35-0.41,0.7-0.74,1.05c-0.33,0.35-0.68,0.68-1.05,0.98c-0.38,0.31-0.66,0.55-0.84,0.74c-0.7,0.7-1.38,1.47-2.04,2.32
			c-0.66,0.84-0.98,1.73-0.98,2.67c0.84,0,1.73-0.21,2.67-0.63c0.94-0.42,1.76-0.77,2.46-1.05c2.25-1.03,4.47-2.2,6.67-3.51
			c1.22-0.75,2.32-1.5,3.3-2.25c0.42-0.28,0.85-0.28,1.3,0c0.44,0.28,0.62,0.7,0.53,1.26c-0.09,0.42-0.29,0.83-0.6,1.23
			c-0.31,0.4-0.57,0.81-0.81,1.23c-0.23,0.38-0.46,0.89-0.67,1.54c-0.21,0.66-0.22,1.24-0.03,1.76c0.51,0.28,1.15,0.32,1.9,0.1
			c0.75-0.21,1.36-0.39,1.83-0.53c2.01-0.7,3.88-1.5,5.62-2.39c0.33-0.14,0.74-0.34,1.23-0.6c0.49-0.26,0.85-0.15,1.09,0.32
			c0.23,0.42,0.2,0.74-0.1,0.95c-0.31,0.21-0.62,0.39-0.95,0.53l-4.64,2.18c-0.98,0.42-2.06,0.9-3.23,1.44
			c-1.17,0.54-2.34,0.67-3.51,0.39c-0.84-0.23-1.32-0.71-1.44-1.44c-0.12-0.72-0.06-1.42,0.18-2.07l1.05-2.53
			c-1.22,0.56-2.4,1.15-3.55,1.76c-1.15,0.61-2.33,1.17-3.55,1.68c-0.51,0.28-1.12,0.62-1.83,1.02c-0.7,0.4-1.44,0.77-2.21,1.12
			c-0.77,0.35-1.53,0.61-2.28,0.77c-0.75,0.16-1.4,0.13-1.97-0.11c-0.56-0.19-0.85-0.55-0.88-1.09c-0.02-0.54,0.1-1.16,0.39-1.86
			c0.28-0.7,0.68-1.45,1.19-2.25c0.51-0.79,1.05-1.57,1.62-2.32l-1.69,0.77c-1.92,0.7-3.3,1.24-4.14,1.61
			c-0.84,0.38-1.5,0.61-1.97,0.7c-0.28,0.09-0.5,0.07-0.67-0.07c-0.16-0.14-0.28-0.3-0.35-0.49c-0.07-0.19-0.07-0.37,0-0.56
			C54.78,37.49,54.94,37.35,55.17,37.25"/>
		<path class="st6" d="M55.17,37.25c1.22-0.37,2.41-0.83,3.58-1.37c1.17-0.54,2.34-1.06,3.51-1.58c0.28-0.14,0.71-0.41,1.3-0.81
			c0.58-0.4,1.18-0.76,1.79-1.09c0.61-0.33,1.18-0.55,1.72-0.67c0.54-0.12,0.95,0.03,1.23,0.46c0.23,0.38,0.27,0.74,0.11,1.09
			c-0.17,0.35-0.41,0.7-0.74,1.05c-0.33,0.35-0.68,0.68-1.05,0.98c-0.38,0.31-0.66,0.55-0.84,0.74c-0.7,0.7-1.38,1.47-2.04,2.32
			c-0.66,0.84-0.98,1.73-0.98,2.67c0.84,0,1.73-0.21,2.67-0.63c0.94-0.42,1.76-0.77,2.46-1.05c2.25-1.03,4.47-2.2,6.67-3.51
			c1.22-0.75,2.32-1.5,3.3-2.25c0.42-0.28,0.85-0.28,1.3,0c0.44,0.28,0.62,0.7,0.53,1.26c-0.09,0.42-0.29,0.83-0.6,1.23
			c-0.31,0.4-0.57,0.81-0.81,1.23c-0.23,0.38-0.46,0.89-0.67,1.54c-0.21,0.66-0.22,1.24-0.03,1.76c0.51,0.28,1.15,0.32,1.9,0.1
			c0.75-0.21,1.36-0.39,1.83-0.53c2.01-0.7,3.88-1.5,5.62-2.39c0.33-0.14,0.74-0.34,1.23-0.6c0.49-0.26,0.85-0.15,1.09,0.32
			c0.23,0.42,0.2,0.74-0.1,0.95c-0.31,0.21-0.62,0.39-0.95,0.53l-4.64,2.18c-0.98,0.42-2.06,0.9-3.23,1.44
			c-1.17,0.54-2.34,0.67-3.51,0.39c-0.84-0.23-1.32-0.71-1.44-1.44c-0.12-0.72-0.06-1.42,0.18-2.07l1.05-2.53
			c-1.22,0.56-2.4,1.15-3.55,1.76c-1.15,0.61-2.33,1.17-3.55,1.68c-0.51,0.28-1.12,0.62-1.83,1.02c-0.7,0.4-1.44,0.77-2.21,1.12
			c-0.77,0.35-1.53,0.61-2.28,0.77c-0.75,0.16-1.4,0.13-1.97-0.11c-0.56-0.19-0.85-0.55-0.88-1.09c-0.02-0.54,0.1-1.16,0.39-1.86
			c0.28-0.7,0.68-1.45,1.19-2.25c0.51-0.79,1.05-1.57,1.62-2.32l-1.69,0.77c-1.92,0.7-3.3,1.24-4.14,1.61
			c-0.84,0.38-1.5,0.61-1.97,0.7c-0.28,0.09-0.5,0.07-0.67-0.07c-0.16-0.14-0.28-0.3-0.35-0.49c-0.07-0.19-0.07-0.37,0-0.56
			C54.78,37.49,54.94,37.35,55.17,37.25z"/>
		<path class="st5" d="M88.04,37.32c0.33-0.19,0.92-0.53,1.79-1.02c0.87-0.49,1.83-0.99,2.88-1.51c1.05-0.51,2.12-0.99,3.2-1.44
			c1.08-0.44,2.01-0.69,2.81-0.74c0.28-0.09,0.57-0.08,0.88,0.03c0.3,0.12,0.53,0.27,0.67,0.46c0.28,0.47,0.3,0.83,0.07,1.09
			c-0.23,0.26-0.54,0.48-0.91,0.67c-0.38,0.19-0.79,0.34-1.23,0.46c-0.44,0.12-0.74,0.27-0.88,0.46c-0.24,0.28-0.18,0.54,0.18,0.77
			c0.35,0.23,0.78,0.42,1.3,0.56c0.51,0.14,1.03,0.27,1.54,0.39c0.52,0.12,0.84,0.22,0.98,0.32c0.94,0.51,1.49,1.07,1.65,1.65
			c0.16,0.59,0.06,1.18-0.32,1.79l1.9-0.98l5.62-2.95c0.33-0.19,0.62-0.2,0.88-0.03c0.26,0.16,0.39,0.43,0.39,0.81
			c0,0.38-0.2,0.65-0.6,0.81c-0.4,0.17-0.76,0.32-1.09,0.46c-1.12,0.51-2.26,1.06-3.41,1.65c-1.15,0.59-2.28,1.18-3.41,1.79
			c-1.36,0.66-2.66,1.24-3.9,1.76c-1.24,0.51-2.52,0.77-3.83,0.77c-0.94,0-1.77-0.33-2.49-0.98c-0.73-0.66-1.09-1.4-1.09-2.25
			c-0.05-0.42,0.05-0.76,0.28-1.02c0.23-0.26,0.51-0.42,0.84-0.49c0.33-0.07,0.62-0.01,0.88,0.17c0.26,0.19,0.41,0.49,0.46,0.91
			c0.09,0.94,0.5,1.49,1.23,1.65c0.72,0.16,1.58,0.13,2.56-0.1c0.66-0.23,1.25-0.53,1.79-0.88c0.54-0.35,0.92-0.69,1.16-1.02
			c0.61-0.65,0.77-1.17,0.49-1.55s-0.76-0.68-1.44-0.91c-0.68-0.23-1.39-0.43-2.14-0.6c-0.75-0.16-1.26-0.36-1.54-0.6
			c-0.42-0.37-0.67-0.75-0.74-1.12s-0.06-0.75,0.03-1.12c-0.7,0.28-1.39,0.57-2.07,0.88c-0.68,0.31-1.3,0.58-1.86,0.81
			c-0.42,0.24-0.93,0.57-1.51,1.02c-0.59,0.44-1.11,0.67-1.58,0.67c-0.23,0.05-0.43,0.01-0.6-0.11c-0.16-0.12-0.26-0.26-0.28-0.42
			c-0.02-0.16,0-0.34,0.07-0.53C87.72,37.56,87.85,37.42,88.04,37.32"/>
		<path class="st6" d="M88.04,37.32c0.33-0.19,0.92-0.53,1.79-1.02c0.87-0.49,1.83-0.99,2.88-1.51c1.05-0.51,2.12-0.99,3.2-1.44
			c1.08-0.44,2.01-0.69,2.81-0.74c0.28-0.09,0.57-0.08,0.88,0.03c0.3,0.12,0.53,0.27,0.67,0.46c0.28,0.47,0.3,0.83,0.07,1.09
			c-0.23,0.26-0.54,0.48-0.91,0.67c-0.38,0.19-0.79,0.34-1.23,0.46c-0.44,0.12-0.74,0.27-0.88,0.46c-0.24,0.28-0.18,0.54,0.18,0.77
			c0.35,0.23,0.78,0.42,1.3,0.56c0.51,0.14,1.03,0.27,1.54,0.39c0.52,0.12,0.84,0.22,0.98,0.32c0.94,0.51,1.49,1.07,1.65,1.65
			c0.16,0.59,0.06,1.18-0.32,1.79l1.9-0.98l5.62-2.95c0.33-0.19,0.62-0.2,0.88-0.03c0.26,0.16,0.39,0.43,0.39,0.81
			c0,0.38-0.2,0.65-0.6,0.81c-0.4,0.17-0.76,0.32-1.09,0.46c-1.12,0.51-2.26,1.06-3.41,1.65c-1.15,0.59-2.28,1.18-3.41,1.79
			c-1.36,0.66-2.66,1.24-3.9,1.76c-1.24,0.51-2.52,0.77-3.83,0.77c-0.94,0-1.77-0.33-2.49-0.98c-0.73-0.66-1.09-1.4-1.09-2.25
			c-0.05-0.42,0.05-0.76,0.28-1.02c0.23-0.26,0.51-0.42,0.84-0.49c0.33-0.07,0.62-0.01,0.88,0.17c0.26,0.19,0.41,0.49,0.46,0.91
			c0.09,0.94,0.5,1.49,1.23,1.65c0.72,0.16,1.58,0.13,2.56-0.1c0.66-0.23,1.25-0.53,1.79-0.88c0.54-0.35,0.92-0.69,1.16-1.02
			c0.61-0.65,0.77-1.17,0.49-1.55s-0.76-0.68-1.44-0.91c-0.68-0.23-1.39-0.43-2.14-0.6c-0.75-0.16-1.26-0.36-1.54-0.6
			c-0.42-0.37-0.67-0.75-0.74-1.12s-0.06-0.75,0.03-1.12c-0.7,0.28-1.39,0.57-2.07,0.88c-0.68,0.31-1.3,0.58-1.86,0.81
			c-0.42,0.24-0.93,0.57-1.51,1.02c-0.59,0.44-1.11,0.67-1.58,0.67c-0.23,0.05-0.43,0.01-0.6-0.11c-0.16-0.12-0.26-0.26-0.28-0.42
			c-0.02-0.16,0-0.34,0.07-0.53C87.72,37.56,87.85,37.42,88.04,37.32z"/>
		<path class="st5" d="M116.62,28.62c0.84,0.05,1.69,0.06,2.53,0.03c0.84-0.02,1.69-0.08,2.53-0.18c1.31-2.01,2.73-4.11,4.25-6.29
			c1.52-2.18,3.24-4.01,5.16-5.51c0.38-0.23,0.76-0.47,1.16-0.7c0.4-0.23,0.81-0.37,1.23-0.42c0.47,0,0.82,0.19,1.05,0.56
			c0.23,0.38,0.28,0.77,0.14,1.19c-0.23,0.94-0.75,1.84-1.54,2.7c-0.8,0.87-1.48,1.65-2.04,2.35c-0.7,0.94-1.44,1.85-2.21,2.74
			c-0.77,0.89-1.56,1.76-2.35,2.6l4.14-0.98l6.95-2.11c0.33-0.14,0.67-0.25,1.02-0.32c0.35-0.07,0.67,0.08,0.95,0.46
			c0.28,0.38,0.35,0.76,0.21,1.16c-0.14,0.4-0.4,0.67-0.77,0.81c-2.15,0.75-4.4,1.33-6.74,1.76c-2.34,0.42-4.63,0.77-6.88,1.05
			l-0.98,0.21c-0.56,0.52-1.15,1.03-1.76,1.54c-0.61,0.52-1.24,1.03-1.9,1.54c-0.33,0.47-0.61,0.95-0.84,1.44
			c-0.24,0.49-0.47,0.99-0.7,1.51c-0.09,0.14-0.23,0.49-0.42,1.05c-0.19,0.56-0.36,1.14-0.53,1.72c-0.17,0.59-0.29,1.12-0.39,1.62
			c-0.09,0.49-0.07,0.74,0.07,0.74c0.98,0.23,2.05,0.18,3.19-0.18c1.15-0.35,2.14-0.64,2.99-0.88c1.08-0.37,2.15-0.75,3.23-1.12
			c1.08-0.37,2.15-0.79,3.23-1.26c0.28-0.09,0.64-0.16,1.09-0.21c0.44-0.05,0.64,0.23,0.6,0.84c-0.05,0.42-0.34,0.72-0.88,0.88
			c-0.54,0.16-0.97,0.32-1.3,0.46l-4.99,1.83c-0.56,0.24-1.35,0.56-2.35,0.98c-1.01,0.42-2.01,0.76-3.02,1.02
			c-1.01,0.26-1.92,0.29-2.74,0.11c-0.82-0.19-1.32-0.82-1.51-1.9c-0.09-1.08,0.11-2.14,0.6-3.19c0.49-1.05,1.07-2.19,1.72-3.41
			c-2.15,1.45-4.4,2.74-6.74,3.86c-0.28,0.14-0.52,0.17-0.7,0.07c-0.19-0.09-0.33-0.23-0.42-0.42c-0.09-0.19-0.11-0.39-0.03-0.6
			c0.07-0.21,0.22-0.39,0.46-0.53c1.64-0.75,3.22-1.57,4.74-2.46c1.52-0.89,3.01-1.87,4.46-2.95l0.98-1.68
			c-0.7,0.05-1.48,0.14-2.32,0.28c-0.84,0.14-1.52,0.07-2.04-0.21c-0.38-0.23-0.5-0.56-0.39-0.98
			C115.93,28.83,116.2,28.62,116.62,28.62 M129.33,21.94c0.23-0.33,0.46-0.68,0.67-1.05c0.21-0.38,0.43-0.75,0.67-1.12
			c-0.47,0.47-0.9,0.94-1.3,1.4c-0.4,0.47-0.74,0.84-1.02,1.12c-0.84,0.94-1.66,1.88-2.46,2.84c-0.8,0.96-1.52,1.98-2.18,3.05
			C125.82,26.27,127.69,24.19,129.33,21.94"/>
		<path class="st6" d="M116.62,28.62c0.84,0.05,1.69,0.06,2.53,0.03c0.84-0.02,1.69-0.08,2.53-0.18c1.31-2.01,2.73-4.11,4.25-6.29
			c1.52-2.18,3.24-4.01,5.16-5.51c0.38-0.23,0.76-0.47,1.16-0.7c0.4-0.23,0.81-0.37,1.23-0.42c0.47,0,0.82,0.19,1.05,0.56
			c0.23,0.38,0.28,0.77,0.14,1.19c-0.23,0.94-0.75,1.84-1.54,2.7c-0.8,0.87-1.48,1.65-2.04,2.35c-0.7,0.94-1.44,1.85-2.21,2.74
			c-0.77,0.89-1.56,1.76-2.35,2.6l4.14-0.98l6.95-2.11c0.33-0.14,0.67-0.25,1.02-0.32c0.35-0.07,0.67,0.08,0.95,0.46
			c0.28,0.38,0.35,0.76,0.21,1.16c-0.14,0.4-0.4,0.67-0.77,0.81c-2.15,0.75-4.4,1.33-6.74,1.76c-2.34,0.42-4.63,0.77-6.88,1.05
			l-0.98,0.21c-0.56,0.52-1.15,1.03-1.76,1.54c-0.61,0.52-1.24,1.03-1.9,1.54c-0.33,0.47-0.61,0.95-0.84,1.44
			c-0.24,0.49-0.47,0.99-0.7,1.51c-0.09,0.14-0.23,0.49-0.42,1.05c-0.19,0.56-0.36,1.14-0.53,1.72c-0.17,0.59-0.29,1.12-0.39,1.62
			c-0.09,0.49-0.07,0.74,0.07,0.74c0.98,0.23,2.05,0.18,3.19-0.18c1.15-0.35,2.14-0.64,2.99-0.88c1.08-0.37,2.15-0.75,3.23-1.12
			c1.08-0.37,2.15-0.79,3.23-1.26c0.28-0.09,0.64-0.16,1.09-0.21c0.44-0.05,0.64,0.23,0.6,0.84c-0.05,0.42-0.34,0.72-0.88,0.88
			c-0.54,0.16-0.97,0.32-1.3,0.46l-4.99,1.83c-0.56,0.24-1.35,0.56-2.35,0.98c-1.01,0.42-2.01,0.76-3.02,1.02
			c-1.01,0.26-1.92,0.29-2.74,0.11c-0.82-0.19-1.32-0.82-1.51-1.9c-0.09-1.08,0.11-2.14,0.6-3.19c0.49-1.05,1.07-2.19,1.72-3.41
			c-2.15,1.45-4.4,2.74-6.74,3.86c-0.28,0.14-0.52,0.17-0.7,0.07c-0.19-0.09-0.33-0.23-0.42-0.42c-0.09-0.19-0.11-0.39-0.03-0.6
			c0.07-0.21,0.22-0.39,0.46-0.53c1.64-0.75,3.22-1.57,4.74-2.46c1.52-0.89,3.01-1.87,4.46-2.95l0.98-1.68
			c-0.7,0.05-1.48,0.14-2.32,0.28c-0.84,0.14-1.52,0.07-2.04-0.21c-0.38-0.23-0.5-0.56-0.39-0.98
			C115.93,28.83,116.2,28.62,116.62,28.62z M129.33,21.94c0.23-0.33,0.46-0.68,0.67-1.05c0.21-0.38,0.43-0.75,0.67-1.12
			c-0.47,0.47-0.9,0.94-1.3,1.4c-0.4,0.47-0.74,0.84-1.02,1.12c-0.84,0.94-1.66,1.88-2.46,2.84c-0.8,0.96-1.52,1.98-2.18,3.05
			C125.82,26.27,127.69,24.19,129.33,21.94z"/>
		<path class="st5" d="M131.29,37.25c0.98-0.51,1.95-1.03,2.91-1.54c0.96-0.51,2-1.1,3.12-1.76c-0.1-0.89,0.18-1.73,0.81-2.53
			c0.63-0.8,1.44-1.17,2.42-1.12c0.65,0.1,1.08,0.42,1.26,0.98c0.19,0.56,0.09,1.1-0.28,1.61c-0.38,0.56-0.87,1.03-1.47,1.4
			c0.33,0.19,0.73,0.28,1.19,0.28c0.98,0.09,2.01-0.08,3.09-0.53c1.08-0.44,2.04-0.92,2.88-1.44c0.84-0.28,1.38-0.19,1.62,0.28
			c0.23,0.47,0.14,1.03-0.28,1.69c-0.23,0.38-0.5,0.85-0.81,1.44c-0.3,0.59-0.56,1.18-0.77,1.79c-0.21,0.61-0.33,1.19-0.35,1.75
			c-0.02,0.56,0.15,1.01,0.53,1.33c0.23,0.28,0.85,0.28,1.86,0c1.01-0.28,2.35-0.75,4.04-1.4c0.56-0.23,1.13-0.5,1.72-0.81
			c0.58-0.3,1.18-0.6,1.79-0.88c0.14-0.05,0.35-0.15,0.63-0.32c0.28-0.16,0.55-0.28,0.81-0.35c0.26-0.07,0.49-0.07,0.7,0
			c0.21,0.07,0.32,0.32,0.32,0.74c0,0.24-0.1,0.45-0.32,0.63c-0.21,0.19-0.45,0.35-0.7,0.49c-0.26,0.14-0.53,0.26-0.81,0.35
			c-0.28,0.09-0.49,0.16-0.63,0.21l-2.95,1.33c-0.52,0.28-1.16,0.63-1.93,1.05c-0.77,0.42-1.56,0.77-2.35,1.05
			c-0.8,0.28-1.57,0.42-2.32,0.42c-0.75,0-1.33-0.3-1.76-0.91c-0.24-0.33-0.38-0.69-0.42-1.09c-0.05-0.4-0.03-0.8,0.04-1.19
			c0.07-0.4,0.16-0.8,0.28-1.19c0.12-0.4,0.22-0.78,0.32-1.16l0.56-2.32c-0.24,0.05-0.71,0.17-1.44,0.35
			c-0.73,0.19-1.51,0.32-2.35,0.39c-0.84,0.07-1.65,0.06-2.42-0.03c-0.77-0.09-1.35-0.4-1.72-0.91c-0.8,0.42-1.45,0.77-1.97,1.05
			c-0.52,0.28-1.04,0.59-1.58,0.91c-0.54,0.33-0.97,0.59-1.3,0.77c-0.28,0.09-0.61,0.27-0.98,0.53c-0.38,0.26-0.7,0.29-0.98,0.11
			c-0.28-0.19-0.42-0.44-0.42-0.77C130.87,37.63,131.01,37.39,131.29,37.25"/>
		<path class="st6" d="M131.29,37.25c0.98-0.51,1.95-1.03,2.91-1.54c0.96-0.51,2-1.1,3.12-1.76c-0.1-0.89,0.18-1.73,0.81-2.53
			c0.63-0.8,1.44-1.17,2.42-1.12c0.65,0.1,1.08,0.42,1.26,0.98c0.19,0.56,0.09,1.1-0.28,1.61c-0.38,0.56-0.87,1.03-1.47,1.4
			c0.33,0.19,0.73,0.28,1.19,0.28c0.98,0.09,2.01-0.08,3.09-0.53c1.08-0.44,2.04-0.92,2.88-1.44c0.84-0.28,1.38-0.19,1.62,0.28
			c0.23,0.47,0.14,1.03-0.28,1.69c-0.23,0.38-0.5,0.85-0.81,1.44c-0.3,0.59-0.56,1.18-0.77,1.79c-0.21,0.61-0.33,1.19-0.35,1.75
			c-0.02,0.56,0.15,1.01,0.53,1.33c0.23,0.28,0.85,0.28,1.86,0c1.01-0.28,2.35-0.75,4.04-1.4c0.56-0.23,1.13-0.5,1.72-0.81
			c0.58-0.3,1.18-0.6,1.79-0.88c0.14-0.05,0.35-0.15,0.63-0.32c0.28-0.16,0.55-0.28,0.81-0.35c0.26-0.07,0.49-0.07,0.7,0
			c0.21,0.07,0.32,0.32,0.32,0.74c0,0.24-0.1,0.45-0.32,0.63c-0.21,0.19-0.45,0.35-0.7,0.49c-0.26,0.14-0.53,0.26-0.81,0.35
			c-0.28,0.09-0.49,0.16-0.63,0.21l-2.95,1.33c-0.52,0.28-1.16,0.63-1.93,1.05c-0.77,0.42-1.56,0.77-2.35,1.05
			c-0.8,0.28-1.57,0.42-2.32,0.42c-0.75,0-1.33-0.3-1.76-0.91c-0.24-0.33-0.38-0.69-0.42-1.09c-0.05-0.4-0.03-0.8,0.04-1.19
			c0.07-0.4,0.16-0.8,0.28-1.19c0.12-0.4,0.22-0.78,0.32-1.16l0.56-2.32c-0.24,0.05-0.71,0.17-1.44,0.35
			c-0.73,0.19-1.51,0.32-2.35,0.39c-0.84,0.07-1.65,0.06-2.42-0.03c-0.77-0.09-1.35-0.4-1.72-0.91c-0.8,0.42-1.45,0.77-1.97,1.05
			c-0.52,0.28-1.04,0.59-1.58,0.91c-0.54,0.33-0.97,0.59-1.3,0.77c-0.28,0.09-0.61,0.27-0.98,0.53c-0.38,0.26-0.7,0.29-0.98,0.11
			c-0.28-0.19-0.42-0.44-0.42-0.77C130.87,37.63,131.01,37.39,131.29,37.25z"/>
		<path class="st5" d="M157.77,37.32c0.56-0.28,1.27-0.64,2.14-1.09c0.87-0.44,1.79-0.88,2.77-1.3c0.98-0.42,1.93-0.82,2.84-1.19
			c0.91-0.37,1.67-0.68,2.28-0.91c0.33-0.14,0.91-0.35,1.75-0.63c0.84-0.28,1.73-0.54,2.67-0.77c0.94-0.23,1.81-0.4,2.63-0.49
			c0.82-0.09,1.41-0.02,1.79,0.21c0.56,0.51,0.67,0.98,0.32,1.4c-0.35,0.42-0.78,0.68-1.3,0.77l-3.16,0.35
			c-0.66,0.19-1.21,0.41-1.65,0.67c-0.45,0.26-0.95,0.57-1.51,0.95c-0.24,0.19-0.65,0.57-1.23,1.16c-0.59,0.59-1.16,1.22-1.72,1.9
			c-0.56,0.68-1.01,1.33-1.33,1.97c-0.33,0.63-0.33,1.09,0,1.37c0.28,0.24,0.74,0.28,1.37,0.14c0.63-0.14,1.28-0.35,1.93-0.63
			c0.66-0.28,1.26-0.57,1.83-0.88c0.56-0.3,0.93-0.53,1.12-0.67c1.36-0.84,2.46-1.73,3.3-2.67c0.42-0.47,0.88-0.53,1.37-0.18
			c0.49,0.35,0.64,0.83,0.46,1.44c-0.1,0.33-0.26,0.61-0.49,0.84c-0.23,0.24-0.46,0.46-0.67,0.67c-0.21,0.21-0.39,0.5-0.53,0.88
			c-0.19,0.33-0.24,0.57-0.14,0.74c0.09,0.17,0.26,0.27,0.49,0.32c0.65,0.09,1.48,0.05,2.46-0.14c0.98-0.19,2-0.44,3.05-0.77
			c1.05-0.33,2.1-0.71,3.12-1.16c1.03-0.44,1.92-0.85,2.67-1.23c0.19-0.05,0.45-0.17,0.77-0.39c0.33-0.21,0.67-0.39,1.02-0.53
			c0.35-0.14,0.69-0.21,1.02-0.21c0.33,0,0.56,0.14,0.7,0.42c0.19,0.28,0.18,0.54-0.04,0.77c-0.21,0.23-0.5,0.43-0.88,0.6
			c-0.38,0.16-0.75,0.32-1.12,0.46c-0.38,0.14-0.66,0.26-0.84,0.35c-0.8,0.37-1.59,0.74-2.39,1.09c-0.8,0.35-1.61,0.71-2.46,1.09
			c-0.56,0.24-1.17,0.52-1.83,0.84c-0.66,0.33-1.33,0.61-2.04,0.84c-0.7,0.23-1.42,0.4-2.14,0.49c-0.73,0.09-1.39,0.02-2-0.21
			c-0.8-0.33-1.26-0.78-1.41-1.37c-0.14-0.58-0.12-1.21,0.07-1.86l-1.9,1.12c-0.8,0.47-1.63,0.95-2.49,1.44
			c-0.87,0.49-1.77,0.78-2.7,0.88c-0.84,0.05-1.59-0.14-2.25-0.56c-0.66-0.42-1.01-1.08-1.05-1.97c0-0.47,0.19-1.06,0.56-1.79
			c0.37-0.72,0.85-1.47,1.44-2.25c0.59-0.77,1.23-1.49,1.93-2.14c0.7-0.65,1.36-1.15,1.97-1.47c-0.33,0.09-0.85,0.31-1.58,0.63
			c-0.73,0.33-1.54,0.73-2.46,1.19c-0.91,0.47-1.87,0.95-2.88,1.44c-1.01,0.49-1.93,0.95-2.77,1.37c-0.24,0.14-0.47,0.18-0.7,0.1
			c-0.23-0.07-0.41-0.19-0.53-0.35c-0.12-0.16-0.16-0.35-0.14-0.56C157.34,37.64,157.49,37.46,157.77,37.32"/>
		<path class="st6" d="M157.77,37.32c0.56-0.28,1.27-0.64,2.14-1.09c0.87-0.44,1.79-0.88,2.77-1.3c0.98-0.42,1.93-0.82,2.84-1.19
			c0.91-0.37,1.67-0.68,2.28-0.91c0.33-0.14,0.91-0.35,1.75-0.63c0.84-0.28,1.73-0.54,2.67-0.77c0.94-0.23,1.81-0.4,2.63-0.49
			c0.82-0.09,1.41-0.02,1.79,0.21c0.56,0.51,0.67,0.98,0.32,1.4c-0.35,0.42-0.78,0.68-1.3,0.77l-3.16,0.35
			c-0.66,0.19-1.21,0.41-1.65,0.67c-0.45,0.26-0.95,0.57-1.51,0.95c-0.24,0.19-0.65,0.57-1.23,1.16c-0.59,0.59-1.16,1.22-1.72,1.9
			c-0.56,0.68-1.01,1.33-1.33,1.97c-0.33,0.63-0.33,1.09,0,1.37c0.28,0.24,0.74,0.28,1.37,0.14c0.63-0.14,1.28-0.35,1.93-0.63
			c0.66-0.28,1.26-0.57,1.83-0.88c0.56-0.3,0.93-0.53,1.12-0.67c1.36-0.84,2.46-1.73,3.3-2.67c0.42-0.47,0.88-0.53,1.37-0.18
			c0.49,0.35,0.64,0.83,0.46,1.44c-0.1,0.33-0.26,0.61-0.49,0.84c-0.23,0.24-0.46,0.46-0.67,0.67c-0.21,0.21-0.39,0.5-0.53,0.88
			c-0.19,0.33-0.24,0.57-0.14,0.74c0.09,0.17,0.26,0.27,0.49,0.32c0.65,0.09,1.48,0.05,2.46-0.14c0.98-0.19,2-0.44,3.05-0.77
			c1.05-0.33,2.1-0.71,3.12-1.16c1.03-0.44,1.92-0.85,2.67-1.23c0.19-0.05,0.45-0.17,0.77-0.39c0.33-0.21,0.67-0.39,1.02-0.53
			c0.35-0.14,0.69-0.21,1.02-0.21c0.33,0,0.56,0.14,0.7,0.42c0.19,0.28,0.18,0.54-0.04,0.77c-0.21,0.23-0.5,0.43-0.88,0.6
			c-0.38,0.16-0.75,0.32-1.12,0.46c-0.38,0.14-0.66,0.26-0.84,0.35c-0.8,0.37-1.59,0.74-2.39,1.09c-0.8,0.35-1.61,0.71-2.46,1.09
			c-0.56,0.24-1.17,0.52-1.83,0.84c-0.66,0.33-1.33,0.61-2.04,0.84c-0.7,0.23-1.42,0.4-2.14,0.49c-0.73,0.09-1.39,0.02-2-0.21
			c-0.8-0.33-1.26-0.78-1.41-1.37c-0.14-0.58-0.12-1.21,0.07-1.86l-1.9,1.12c-0.8,0.47-1.63,0.95-2.49,1.44
			c-0.87,0.49-1.77,0.78-2.7,0.88c-0.84,0.05-1.59-0.14-2.25-0.56c-0.66-0.42-1.01-1.08-1.05-1.97c0-0.47,0.19-1.06,0.56-1.79
			c0.37-0.72,0.85-1.47,1.44-2.25c0.59-0.77,1.23-1.49,1.93-2.14c0.7-0.65,1.36-1.15,1.97-1.47c-0.33,0.09-0.85,0.31-1.58,0.63
			c-0.73,0.33-1.54,0.73-2.46,1.19c-0.91,0.47-1.87,0.95-2.88,1.44c-1.01,0.49-1.93,0.95-2.77,1.37c-0.24,0.14-0.47,0.18-0.7,0.1
			c-0.23-0.07-0.41-0.19-0.53-0.35c-0.12-0.16-0.16-0.35-0.14-0.56C157.34,37.64,157.49,37.46,157.77,37.32z"/>
		<path class="st5" d="M188.74,37.25c1.45-0.65,2.86-1.38,4.21-2.18c1.36-0.8,2.71-1.66,4.07-2.6c0.65-1.31,1.38-2.57,2.18-3.79
			c0.8-1.22,1.57-2.41,2.32-3.58c0.8-1.08,1.59-2.16,2.39-3.27c0.8-1.1,1.62-2.19,2.46-3.26c0.7-0.94,1.46-1.88,2.28-2.84
			c0.82-0.96,1.77-1.74,2.84-2.35c0.51-0.28,1.15-0.48,1.9-0.6c0.75-0.12,1.26,0.22,1.54,1.02c0.19,0.52,0.2,1.02,0.04,1.51
			c-0.16,0.49-0.41,0.98-0.74,1.47c-0.33,0.49-0.68,0.96-1.05,1.4c-0.38,0.44-0.68,0.83-0.91,1.16c-1.87,2.67-3.97,5.16-6.29,7.48
			c-2.32,2.32-4.81,4.46-7.48,6.43c-0.24,0.56-0.5,1.16-0.81,1.79c-0.31,0.63-0.57,1.3-0.81,2c-0.24,0.7-0.4,1.39-0.49,2.07
			c-0.09,0.68-0.07,1.32,0.07,1.93c0.51-0.09,0.98-0.16,1.4-0.21c0.37-0.05,0.73-0.08,1.05-0.11c0.33-0.02,0.54-0.06,0.63-0.1
			c1.4-0.28,2.78-0.65,4.14-1.12c1.36-0.47,2.69-0.98,4-1.54c0.38-0.09,0.82-0.28,1.34-0.56c0.51-0.28,0.96-0.3,1.33-0.07
			c0.51,0.38,0.59,0.72,0.21,1.02c-0.38,0.31-0.73,0.53-1.05,0.67l-8.15,3.02c-0.8,0.28-1.57,0.57-2.32,0.88
			c-0.75,0.31-1.52,0.48-2.32,0.53c-0.7,0.09-1.26-0.01-1.69-0.32c-0.42-0.3-0.71-0.7-0.88-1.19c-0.17-0.49-0.22-1.03-0.18-1.61
			c0.05-0.58,0.14-1.13,0.28-1.65c0.33-1.12,0.75-2.25,1.26-3.37c-1.92,1.26-3.93,2.41-6.04,3.44c-0.47,0.09-0.85-0.06-1.16-0.46
			C188.05,37.87,188.18,37.53,188.74,37.25 M202.99,27.63c2.2-2.06,4.21-4.28,6.04-6.67c0.84-0.98,1.64-2.11,2.39-3.37
			c0.09-0.23,0.23-0.53,0.42-0.88c0.19-0.35,0.35-0.71,0.49-1.09c-0.66,0.33-1.28,0.77-1.86,1.33c-0.58,0.56-1.07,1.03-1.44,1.4
			c-1.08,1.08-2.08,2.21-3.02,3.41c-0.94,1.19-1.87,2.42-2.81,3.69c-0.52,0.75-1.01,1.49-1.48,2.21c-0.47,0.73-0.91,1.46-1.34,2.21
			c0.42-0.33,0.86-0.69,1.3-1.09C202.14,28.39,202.57,28.01,202.99,27.63"/>
		<path class="st6" d="M188.74,37.25c1.45-0.65,2.86-1.38,4.21-2.18c1.36-0.8,2.71-1.66,4.07-2.6c0.65-1.31,1.38-2.57,2.18-3.79
			c0.8-1.22,1.57-2.41,2.32-3.58c0.8-1.08,1.59-2.16,2.39-3.27c0.8-1.1,1.62-2.19,2.46-3.26c0.7-0.94,1.46-1.88,2.28-2.84
			c0.82-0.96,1.77-1.74,2.84-2.35c0.51-0.28,1.15-0.48,1.9-0.6c0.75-0.12,1.26,0.22,1.54,1.02c0.19,0.52,0.2,1.02,0.04,1.51
			c-0.16,0.49-0.41,0.98-0.74,1.47c-0.33,0.49-0.68,0.96-1.05,1.4c-0.38,0.44-0.68,0.83-0.91,1.16c-1.87,2.67-3.97,5.16-6.29,7.48
			c-2.32,2.32-4.81,4.46-7.48,6.43c-0.24,0.56-0.5,1.16-0.81,1.79c-0.31,0.63-0.57,1.3-0.81,2c-0.24,0.7-0.4,1.39-0.49,2.07
			c-0.09,0.68-0.07,1.32,0.07,1.93c0.51-0.09,0.98-0.16,1.4-0.21c0.37-0.05,0.73-0.08,1.05-0.11c0.33-0.02,0.54-0.06,0.63-0.1
			c1.4-0.28,2.78-0.65,4.14-1.12c1.36-0.47,2.69-0.98,4-1.54c0.38-0.09,0.82-0.28,1.34-0.56c0.51-0.28,0.96-0.3,1.33-0.07
			c0.51,0.38,0.59,0.72,0.21,1.02c-0.38,0.31-0.73,0.53-1.05,0.67l-8.15,3.02c-0.8,0.28-1.57,0.57-2.32,0.88
			c-0.75,0.31-1.52,0.48-2.32,0.53c-0.7,0.09-1.26-0.01-1.69-0.32c-0.42-0.3-0.71-0.7-0.88-1.19c-0.17-0.49-0.22-1.03-0.18-1.61
			c0.05-0.58,0.14-1.13,0.28-1.65c0.33-1.12,0.75-2.25,1.26-3.37c-1.92,1.26-3.93,2.41-6.04,3.44c-0.47,0.09-0.85-0.06-1.16-0.46
			C188.05,37.87,188.18,37.53,188.74,37.25z M202.99,27.63c2.2-2.06,4.21-4.28,6.04-6.67c0.84-0.98,1.64-2.11,2.39-3.37
			c0.09-0.23,0.23-0.53,0.42-0.88c0.19-0.35,0.35-0.71,0.49-1.09c-0.66,0.33-1.28,0.77-1.86,1.33c-0.58,0.56-1.07,1.03-1.44,1.4
			c-1.08,1.08-2.08,2.21-3.02,3.41c-0.94,1.19-1.87,2.42-2.81,3.69c-0.52,0.75-1.01,1.49-1.48,2.21c-0.47,0.73-0.91,1.46-1.34,2.21
			c0.42-0.33,0.86-0.69,1.3-1.09C202.14,28.39,202.57,28.01,202.99,27.63z"/>
		<path class="st5" d="M216.41,33.88c0.19-0.09,0.62-0.28,1.3-0.56c0.68-0.28,1.35-0.49,2-0.63c0.65-0.14,1.22-0.15,1.69-0.04
			c0.47,0.12,0.63,0.55,0.49,1.3c-0.09,0.42-0.29,0.84-0.6,1.26c-0.3,0.42-0.53,0.84-0.67,1.26c-0.28,0.61-0.55,1.36-0.81,2.25
			c-0.26,0.89-0.18,1.61,0.25,2.18c0.79,0.1,1.67,0,2.63-0.28c0.96-0.28,1.84-0.56,2.63-0.84c0.23-0.09,0.68-0.33,1.33-0.7
			c0.65-0.37,1.35-0.74,2.07-1.09c0.73-0.35,1.39-0.61,2-0.77c0.61-0.16,0.98-0.11,1.12,0.18c0.19,0.33,0.07,0.68-0.35,1.05
			c-0.42,0.38-0.95,0.72-1.58,1.02c-0.63,0.31-1.28,0.59-1.93,0.84c-0.66,0.26-1.08,0.43-1.26,0.53c-1.03,0.52-2.07,1.02-3.12,1.51
			c-1.05,0.49-2.14,0.83-3.26,1.02c-0.98,0.14-1.66-0.07-2.04-0.63c-0.38-0.56-0.56-1.27-0.56-2.14s0.13-1.8,0.39-2.81
			c0.26-1.01,0.53-1.93,0.81-2.77c-1.08,0.42-2.13,0.81-3.16,1.16c-1.03,0.35-2.04,0.76-3.02,1.23c-0.84,0.38-1.69,0.8-2.53,1.26
			c-0.52,0.14-0.92,0.01-1.23-0.39c-0.3-0.4-0.18-0.74,0.39-1.02L216.41,33.88z M224.62,19.7c0.23-0.61,0.6-1.13,1.09-1.58
			c0.49-0.44,1.04-0.81,1.65-1.09c0.61-0.28,1.25-0.5,1.93-0.67c0.68-0.16,1.32-0.29,1.93-0.39c1.68-0.09,3.35-0.02,4.99,0.21
			c0.28,0,0.6,0.05,0.95,0.14c0.35,0.09,0.5,0.35,0.46,0.77c-0.05,0.24-0.16,0.43-0.35,0.6c-0.19,0.16-0.4,0.22-0.63,0.18
			c-1.36-0.28-2.77-0.39-4.25-0.32c-1.48,0.07-2.8,0.5-3.97,1.3c-0.47,0.28-0.8,0.66-0.98,1.12c-0.19,0.47-0.47,0.84-0.84,1.12
			c-0.47,0.38-0.96,0.38-1.48,0C224.6,20.73,224.44,20.26,224.62,19.7"/>
		<path class="st6" d="M216.41,33.88c0.19-0.09,0.62-0.28,1.3-0.56c0.68-0.28,1.35-0.49,2-0.63c0.65-0.14,1.22-0.15,1.69-0.04
			c0.47,0.12,0.63,0.55,0.49,1.3c-0.09,0.42-0.29,0.84-0.6,1.26c-0.3,0.42-0.53,0.84-0.67,1.26c-0.28,0.61-0.55,1.36-0.81,2.25
			c-0.26,0.89-0.18,1.61,0.25,2.18c0.79,0.1,1.67,0,2.63-0.28c0.96-0.28,1.84-0.56,2.63-0.84c0.23-0.09,0.68-0.33,1.33-0.7
			c0.65-0.37,1.35-0.74,2.07-1.09c0.73-0.35,1.39-0.61,2-0.77c0.61-0.16,0.98-0.11,1.12,0.18c0.19,0.33,0.07,0.68-0.35,1.05
			c-0.42,0.38-0.95,0.72-1.58,1.02c-0.63,0.31-1.28,0.59-1.93,0.84c-0.66,0.26-1.08,0.43-1.26,0.53c-1.03,0.52-2.07,1.02-3.12,1.51
			c-1.05,0.49-2.14,0.83-3.26,1.02c-0.98,0.14-1.66-0.07-2.04-0.63c-0.38-0.56-0.56-1.27-0.56-2.14s0.13-1.8,0.39-2.81
			c0.26-1.01,0.53-1.93,0.81-2.77c-1.08,0.42-2.13,0.81-3.16,1.16c-1.03,0.35-2.04,0.76-3.02,1.23c-0.84,0.38-1.69,0.8-2.53,1.26
			c-0.52,0.14-0.92,0.01-1.23-0.39c-0.3-0.4-0.18-0.74,0.39-1.02L216.41,33.88z M224.62,19.7c0.23-0.61,0.6-1.13,1.09-1.58
			c0.49-0.44,1.04-0.81,1.65-1.09c0.61-0.28,1.25-0.5,1.93-0.67c0.68-0.16,1.32-0.29,1.93-0.39c1.68-0.09,3.35-0.02,4.99,0.21
			c0.28,0,0.6,0.05,0.95,0.14c0.35,0.09,0.5,0.35,0.46,0.77c-0.05,0.24-0.16,0.43-0.35,0.6c-0.19,0.16-0.4,0.22-0.63,0.18
			c-1.36-0.28-2.77-0.39-4.25-0.32c-1.48,0.07-2.8,0.5-3.97,1.3c-0.47,0.28-0.8,0.66-0.98,1.12c-0.19,0.47-0.47,0.84-0.84,1.12
			c-0.47,0.38-0.96,0.38-1.48,0C224.6,20.73,224.44,20.26,224.62,19.7z"/>
		<path class="st5" d="M230.66,37.32c0.56-0.28,1.27-0.64,2.14-1.09c0.87-0.44,1.79-0.88,2.77-1.3c0.98-0.42,1.93-0.82,2.84-1.19
			c0.91-0.37,1.67-0.68,2.28-0.91c0.33-0.14,0.91-0.35,1.75-0.63c0.84-0.28,1.73-0.54,2.67-0.77c0.94-0.23,1.81-0.4,2.63-0.49
			c0.82-0.09,1.41-0.02,1.79,0.21c0.56,0.51,0.67,0.98,0.32,1.4c-0.35,0.42-0.78,0.68-1.3,0.77l-3.16,0.35
			c-0.66,0.19-1.21,0.41-1.65,0.67c-0.45,0.26-0.95,0.57-1.51,0.95c-0.24,0.19-0.65,0.57-1.23,1.16c-0.59,0.59-1.16,1.22-1.72,1.9
			c-0.56,0.68-1.01,1.33-1.33,1.97c-0.33,0.63-0.33,1.09,0,1.37c0.28,0.24,0.74,0.28,1.37,0.14c0.63-0.14,1.28-0.35,1.93-0.63
			c0.66-0.28,1.26-0.57,1.83-0.88c0.56-0.3,0.93-0.53,1.12-0.67c1.36-0.84,2.46-1.73,3.3-2.67c0.42-0.47,0.88-0.53,1.37-0.18
			c0.49,0.35,0.64,0.83,0.46,1.44c-0.1,0.33-0.26,0.61-0.49,0.84c-0.23,0.24-0.46,0.46-0.67,0.67c-0.21,0.21-0.39,0.5-0.53,0.88
			c-0.19,0.33-0.24,0.57-0.14,0.74c0.09,0.17,0.26,0.27,0.49,0.32c0.65,0.09,1.48,0.05,2.46-0.14c0.98-0.19,2-0.44,3.05-0.77
			c1.05-0.33,2.1-0.71,3.12-1.16c1.03-0.44,1.92-0.85,2.67-1.23c0.19-0.05,0.45-0.17,0.77-0.39c0.33-0.21,0.67-0.39,1.02-0.53
			c0.35-0.14,0.69-0.21,1.02-0.21c0.33,0,0.56,0.14,0.7,0.42c0.19,0.28,0.18,0.54-0.04,0.77c-0.21,0.23-0.5,0.43-0.88,0.6
			c-0.38,0.16-0.75,0.32-1.12,0.46c-0.38,0.14-0.66,0.26-0.84,0.35c-0.8,0.37-1.59,0.74-2.39,1.09c-0.8,0.35-1.61,0.71-2.46,1.09
			c-0.56,0.24-1.17,0.52-1.83,0.84c-0.66,0.33-1.33,0.61-2.04,0.84c-0.7,0.23-1.42,0.4-2.14,0.49c-0.73,0.09-1.39,0.02-2-0.21
			c-0.8-0.33-1.26-0.78-1.41-1.37c-0.14-0.58-0.12-1.21,0.07-1.86l-1.9,1.12c-0.8,0.47-1.63,0.95-2.49,1.44
			c-0.87,0.49-1.77,0.78-2.7,0.88c-0.84,0.05-1.59-0.14-2.25-0.56c-0.66-0.42-1.01-1.08-1.05-1.97c0-0.47,0.19-1.06,0.56-1.79
			c0.37-0.72,0.85-1.47,1.44-2.25c0.59-0.77,1.23-1.49,1.93-2.14c0.7-0.65,1.36-1.15,1.97-1.47c-0.33,0.09-0.85,0.31-1.58,0.63
			c-0.73,0.33-1.54,0.73-2.46,1.19c-0.91,0.47-1.87,0.95-2.88,1.44c-1.01,0.49-1.93,0.95-2.77,1.37c-0.24,0.14-0.47,0.18-0.7,0.1
			c-0.23-0.07-0.41-0.19-0.53-0.35c-0.12-0.16-0.16-0.35-0.14-0.56C230.23,37.64,230.38,37.46,230.66,37.32"/>
		<path class="st6" d="M230.66,37.32c0.56-0.28,1.27-0.64,2.14-1.09c0.87-0.44,1.79-0.88,2.77-1.3c0.98-0.42,1.93-0.82,2.84-1.19
			c0.91-0.37,1.67-0.68,2.28-0.91c0.33-0.14,0.91-0.35,1.75-0.63c0.84-0.28,1.73-0.54,2.67-0.77c0.94-0.23,1.81-0.4,2.63-0.49
			c0.82-0.09,1.41-0.02,1.79,0.21c0.56,0.51,0.67,0.98,0.32,1.4c-0.35,0.42-0.78,0.68-1.3,0.77l-3.16,0.35
			c-0.66,0.19-1.21,0.41-1.65,0.67c-0.45,0.26-0.95,0.57-1.51,0.95c-0.24,0.19-0.65,0.57-1.23,1.16c-0.59,0.59-1.16,1.22-1.72,1.9
			c-0.56,0.68-1.01,1.33-1.33,1.97c-0.33,0.63-0.33,1.09,0,1.37c0.28,0.24,0.74,0.28,1.37,0.14c0.63-0.14,1.28-0.35,1.93-0.63
			c0.66-0.28,1.26-0.57,1.83-0.88c0.56-0.3,0.93-0.53,1.12-0.67c1.36-0.84,2.46-1.73,3.3-2.67c0.42-0.47,0.88-0.53,1.37-0.18
			c0.49,0.35,0.64,0.83,0.46,1.44c-0.1,0.33-0.26,0.61-0.49,0.84c-0.23,0.24-0.46,0.46-0.67,0.67c-0.21,0.21-0.39,0.5-0.53,0.88
			c-0.19,0.33-0.24,0.57-0.14,0.74c0.09,0.17,0.26,0.27,0.49,0.32c0.65,0.09,1.48,0.05,2.46-0.14c0.98-0.19,2-0.44,3.05-0.77
			c1.05-0.33,2.1-0.71,3.12-1.16c1.03-0.44,1.92-0.85,2.67-1.23c0.19-0.05,0.45-0.17,0.77-0.39c0.33-0.21,0.67-0.39,1.02-0.53
			c0.35-0.14,0.69-0.21,1.02-0.21c0.33,0,0.56,0.14,0.7,0.42c0.19,0.28,0.18,0.54-0.04,0.77c-0.21,0.23-0.5,0.43-0.88,0.6
			c-0.38,0.16-0.75,0.32-1.12,0.46c-0.38,0.14-0.66,0.26-0.84,0.35c-0.8,0.37-1.59,0.74-2.39,1.09c-0.8,0.35-1.61,0.71-2.46,1.09
			c-0.56,0.24-1.17,0.52-1.83,0.84c-0.66,0.33-1.33,0.61-2.04,0.84c-0.7,0.23-1.42,0.4-2.14,0.49c-0.73,0.09-1.39,0.02-2-0.21
			c-0.8-0.33-1.26-0.78-1.41-1.37c-0.14-0.58-0.12-1.21,0.07-1.86l-1.9,1.12c-0.8,0.47-1.63,0.95-2.49,1.44
			c-0.87,0.49-1.77,0.78-2.7,0.88c-0.84,0.05-1.59-0.14-2.25-0.56c-0.66-0.42-1.01-1.08-1.05-1.97c0-0.47,0.19-1.06,0.56-1.79
			c0.37-0.72,0.85-1.47,1.44-2.25c0.59-0.77,1.23-1.49,1.93-2.14c0.7-0.65,1.36-1.15,1.97-1.47c-0.33,0.09-0.85,0.31-1.58,0.63
			c-0.73,0.33-1.54,0.73-2.46,1.19c-0.91,0.47-1.87,0.95-2.88,1.44c-1.01,0.49-1.93,0.95-2.77,1.37c-0.24,0.14-0.47,0.18-0.7,0.1
			c-0.23-0.07-0.41-0.19-0.53-0.35c-0.12-0.16-0.16-0.35-0.14-0.56C230.23,37.64,230.38,37.46,230.66,37.32z"/>
		<path class="st5" d="M261.49,37.32c0.51-0.28,1.4-0.76,2.67-1.44c1.26-0.68,2.56-1.32,3.9-1.93c1.33-0.61,2.56-1.03,3.69-1.26
			c1.12-0.23,1.83-0.05,2.11,0.56c0.19,0.47,0.13,0.93-0.17,1.37c-0.31,0.45-0.53,0.85-0.67,1.23l-0.84,1.97
			c0.61-0.38,1.22-0.7,1.83-0.98c0.61-0.28,1.22-0.56,1.83-0.84c1.5-0.8,3.04-1.64,4.64-2.53c1.59-0.89,3.21-1.57,4.85-2.04
			c0.61-0.14,1.15-0.15,1.61-0.04c0.47,0.12,0.83,0.33,1.09,0.63c0.26,0.31,0.39,0.7,0.39,1.19c0,0.49-0.19,1.02-0.56,1.58
			c-0.42,0.66-0.88,1.24-1.37,1.76c-0.49,0.51-0.99,1.08-1.51,1.68c-0.1,0.14-0.26,0.33-0.49,0.56c-0.24,0.23-0.48,0.5-0.74,0.81
			c-0.26,0.31-0.49,0.61-0.7,0.91c-0.21,0.3-0.34,0.57-0.39,0.81c0.33,0.09,0.74,0.09,1.23,0c0.49-0.09,0.98-0.22,1.48-0.39
			c0.49-0.16,0.96-0.34,1.4-0.53c0.44-0.19,0.78-0.33,1.02-0.42l2.88-1.26c0.19-0.09,0.43-0.23,0.74-0.42
			c0.3-0.19,0.62-0.36,0.95-0.53c0.33-0.16,0.64-0.32,0.95-0.46c0.3-0.14,0.55-0.21,0.74-0.21c0.42,0,0.63,0.21,0.63,0.63
			c0,0.42-0.19,0.75-0.56,0.98c-0.42,0.24-0.87,0.46-1.34,0.67c-0.47,0.21-0.96,0.43-1.48,0.67c-0.66,0.38-1.29,0.7-1.9,0.98
			c-0.61,0.28-1.24,0.59-1.9,0.91c-0.38,0.19-0.97,0.46-1.79,0.81c-0.82,0.35-1.64,0.61-2.46,0.77c-0.82,0.16-1.53,0.14-2.14-0.07
			c-0.61-0.21-0.91-0.78-0.91-1.72c0-0.47,0.12-0.89,0.35-1.26c0.24-0.37,0.5-0.74,0.81-1.09c0.3-0.35,0.63-0.69,0.98-1.02
			c0.35-0.33,0.67-0.63,0.95-0.91c0.28-0.23,0.75-0.73,1.4-1.48c0.65-0.75,1.08-1.45,1.26-2.11c-1.26,0.14-2.54,0.47-3.83,0.98
			c-1.29,0.52-2.47,1.05-3.55,1.61c-1.36,0.66-2.76,1.39-4.21,2.21c-1.45,0.82-2.72,1.79-3.79,2.91c-0.24,0.19-0.48,0.29-0.74,0.32
			c-0.26,0.02-0.5-0.02-0.74-0.14c-0.24-0.12-0.41-0.29-0.53-0.53c-0.12-0.23-0.13-0.54-0.04-0.91c0.14-0.42,0.49-0.8,1.05-1.12
			c0.23-0.37,0.47-0.81,0.7-1.3c0.23-0.49,0.4-0.78,0.49-0.88c0.09-0.33,0.19-0.67,0.28-1.02c0.09-0.35,0.16-0.71,0.21-1.09
			c-0.52,0.14-1.03,0.31-1.55,0.49c-0.52,0.19-0.91,0.33-1.2,0.42c-0.66,0.28-1.31,0.55-1.96,0.81c-0.66,0.26-1.31,0.55-1.97,0.88
			c-0.38,0.19-0.71,0.38-1.02,0.56c-0.3,0.19-0.64,0.35-1.02,0.49c-0.28,0.14-0.55,0.17-0.81,0.1c-0.26-0.07-0.46-0.18-0.6-0.32
			c-0.14-0.14-0.2-0.32-0.17-0.53C260.99,37.64,261.16,37.46,261.49,37.32"/>
		<path class="st6" d="M261.49,37.32c0.51-0.28,1.4-0.76,2.67-1.44c1.26-0.68,2.56-1.32,3.9-1.93c1.33-0.61,2.56-1.03,3.69-1.26
			c1.12-0.23,1.83-0.05,2.11,0.56c0.19,0.47,0.13,0.93-0.17,1.37c-0.31,0.45-0.53,0.85-0.67,1.23l-0.84,1.97
			c0.61-0.38,1.22-0.7,1.83-0.98c0.61-0.28,1.22-0.56,1.83-0.84c1.5-0.8,3.04-1.64,4.64-2.53c1.59-0.89,3.21-1.57,4.85-2.04
			c0.61-0.14,1.15-0.15,1.61-0.04c0.47,0.12,0.83,0.33,1.09,0.63c0.26,0.31,0.39,0.7,0.39,1.19c0,0.49-0.19,1.02-0.56,1.58
			c-0.42,0.66-0.88,1.24-1.37,1.76c-0.49,0.51-0.99,1.08-1.51,1.68c-0.1,0.14-0.26,0.33-0.49,0.56c-0.24,0.23-0.48,0.5-0.74,0.81
			c-0.26,0.31-0.49,0.61-0.7,0.91c-0.21,0.3-0.34,0.57-0.39,0.81c0.33,0.09,0.74,0.09,1.23,0c0.49-0.09,0.98-0.22,1.48-0.39
			c0.49-0.16,0.96-0.34,1.4-0.53c0.44-0.19,0.78-0.33,1.02-0.42l2.88-1.26c0.19-0.09,0.43-0.23,0.74-0.42
			c0.3-0.19,0.62-0.36,0.95-0.53c0.33-0.16,0.64-0.32,0.95-0.46c0.3-0.14,0.55-0.21,0.74-0.21c0.42,0,0.63,0.21,0.63,0.63
			c0,0.42-0.19,0.75-0.56,0.98c-0.42,0.24-0.87,0.46-1.34,0.67c-0.47,0.21-0.96,0.43-1.48,0.67c-0.66,0.38-1.29,0.7-1.9,0.98
			c-0.61,0.28-1.24,0.59-1.9,0.91c-0.38,0.19-0.97,0.46-1.79,0.81c-0.82,0.35-1.64,0.61-2.46,0.77c-0.82,0.16-1.53,0.14-2.14-0.07
			c-0.61-0.21-0.91-0.78-0.91-1.72c0-0.47,0.12-0.89,0.35-1.26c0.24-0.37,0.5-0.74,0.81-1.09c0.3-0.35,0.63-0.69,0.98-1.02
			c0.35-0.33,0.67-0.63,0.95-0.91c0.28-0.23,0.75-0.73,1.4-1.48c0.65-0.75,1.08-1.45,1.26-2.11c-1.26,0.14-2.54,0.47-3.83,0.98
			c-1.29,0.52-2.47,1.05-3.55,1.61c-1.36,0.66-2.76,1.39-4.21,2.21c-1.45,0.82-2.72,1.79-3.79,2.91c-0.24,0.19-0.48,0.29-0.74,0.32
			c-0.26,0.02-0.5-0.02-0.74-0.14c-0.24-0.12-0.41-0.29-0.53-0.53c-0.12-0.23-0.13-0.54-0.04-0.91c0.14-0.42,0.49-0.8,1.05-1.12
			c0.23-0.37,0.47-0.81,0.7-1.3c0.23-0.49,0.4-0.78,0.49-0.88c0.09-0.33,0.19-0.67,0.28-1.02c0.09-0.35,0.16-0.71,0.21-1.09
			c-0.52,0.14-1.03,0.31-1.55,0.49c-0.52,0.19-0.91,0.33-1.2,0.42c-0.66,0.28-1.31,0.55-1.96,0.81c-0.66,0.26-1.31,0.55-1.97,0.88
			c-0.38,0.19-0.71,0.38-1.02,0.56c-0.3,0.19-0.64,0.35-1.02,0.49c-0.28,0.14-0.55,0.17-0.81,0.1c-0.26-0.07-0.46-0.18-0.6-0.32
			c-0.14-0.14-0.2-0.32-0.17-0.53C260.99,37.64,261.16,37.46,261.49,37.32z"/>
	</g>
</g>
</svg>
